<svg width="42" height="29" viewBox="0 0 42 29" fill="none" xmlns="http://www.w3.org/2000/svg">
<g clip-path="url(#clip0_11_10234)">
<path d="M0.895477 3.52326C0.895477 1.57742 2.42908 0 4.32086 0H38.5747C40.4665 0 42.0001 1.57742 42.0001 3.52326V24.6628C42.0001 26.6086 40.4665 28.186 38.5747 28.186H4.32086C2.42907 28.186 0.895477 26.6086 0.895477 24.6628V3.52326Z" fill="white"/>
<path d="M32.7605 22.133C34.3392 22.133 35.0823 21.5134 35.7313 19.6353L38.5747 11.4323H36.9285L35.0217 17.7787H34.9883L33.0815 11.4409H31.3886L34.1317 19.2485L33.9848 19.7234C33.881 20.4032 33.2877 20.8881 32.6198 20.838C32.4924 20.838 32.2452 20.8244 32.1449 20.8108V22.1001C32.3489 22.1287 32.5551 22.1424 32.7605 22.1416V22.133ZM27.2743 18.0251C26.4107 18.0251 25.8627 17.5953 25.8627 16.9449C25.8627 16.2709 26.3912 15.8783 27.4017 15.816L29.2012 15.6993V16.3053C29.1615 17.3038 28.3418 18.081 27.3711 18.0401C27.3383 18.0387 27.3063 18.0358 27.2743 18.033V18.0251ZM26.8397 19.2979C27.8195 19.3252 28.736 18.8001 29.2284 17.9284H29.2618V19.2177H30.7604V13.8777C30.7604 12.3291 29.5564 11.3313 27.7026 11.3313C25.9831 11.3313 24.7115 12.3427 24.6649 13.733H26.1238C26.2979 13.0261 26.9511 12.5597 27.6559 12.6385C28.6462 12.6385 29.2012 13.1134 29.2012 13.9873V14.579L27.1816 14.7029C25.3014 14.8197 24.2846 15.6112 24.2846 16.9879C24.2832 18.3839 25.3334 19.3058 26.839 19.3058L26.8397 19.2979ZM18.1549 9.89083H20.0213C21.4266 9.89083 22.2296 10.6616 22.2296 12.0175C22.2296 13.3735 21.4266 14.1506 20.015 14.1506H18.1549V9.89083ZM16.5358 8.48689V19.2156H18.1549V15.5582H20.3966C22.2226 15.6592 23.7818 14.2187 23.88 12.3406C23.8856 12.2338 23.8863 12.1278 23.8821 12.0211C23.9685 10.1637 22.575 8.58645 20.7692 8.49692C20.6627 8.4919 20.5568 8.49262 20.4503 8.49763L16.5358 8.48689ZM11.1617 10.4889C10.2313 10.4338 9.43531 11.0326 8.99379 11.0326C8.55228 11.0326 7.86981 10.5169 7.13371 10.5312C6.15875 10.557 5.27015 11.1121 4.79868 11.9903C3.79517 13.766 4.53754 16.3948 5.50762 17.8396C5.98256 18.5559 6.55222 19.3402 7.30085 19.3123C8.00978 19.2851 8.29113 18.8374 9.1477 18.8374C10.0043 18.8374 10.2585 19.3123 11.0078 19.2979C11.7836 19.2843 12.2724 18.5816 12.7488 17.8654C13.0844 17.3582 13.3456 16.8031 13.5246 16.2179C12.6102 15.8067 12.0176 14.8805 12.0127 13.8541C12.0266 12.9487 12.4876 12.1135 13.237 11.6386C12.7592 10.9409 11.9925 10.5126 11.1631 10.4825L11.1617 10.4889ZM10.5809 9.54128C10.1735 10.0692 9.55022 10.3722 8.8949 10.36C8.85312 9.70244 9.0704 9.05563 9.49729 8.56425C9.92209 8.05711 10.521 7.73908 11.1686 7.67676C11.2146 8.35294 11.0036 9.02053 10.5795 9.53913" fill="black"/>
</g>
<defs>
<clipPath id="clip0_11_10234">
<rect width="41.1047" height="28.186" fill="white" transform="translate(0.895508)"/>
</clipPath>
</defs>
</svg>
