<svg width="44" height="29" viewBox="0 0 44 29" fill="none" xmlns="http://www.w3.org/2000/svg">
<g clip-path="url(#clip0_11_10233)">
<path d="M0.872086 3.52326C0.872086 1.57742 2.4495 0 4.39534 0H39.6279C41.5737 0 43.1512 1.57742 43.1512 3.52326V24.6628C43.1512 26.6086 41.5737 28.186 39.6279 28.186H4.39534C2.4495 28.186 0.872086 26.6086 0.872086 24.6628V3.52326Z" fill="white"/>
<path d="M21.058 15.0385V19.1111H19.7569V9.05341H23.2075C23.6194 9.04487 24.0289 9.11741 24.4124 9.26685C24.7959 9.4163 25.1457 9.63968 25.4419 9.92412C25.7409 10.1913 25.979 10.5189 26.14 10.8851C26.301 11.2512 26.3812 11.6473 26.3752 12.0467C26.3838 12.4483 26.3048 12.847 26.1437 13.2155C25.9826 13.5839 25.7432 13.9134 25.4419 14.1814C24.8385 14.7528 24.0937 15.0382 23.2075 15.0376H21.058V15.0385ZM21.058 10.2917V13.8026H23.2398C23.479 13.8096 23.717 13.767 23.9387 13.6775C24.1604 13.5879 24.3608 13.4534 24.5271 13.2826C24.6926 13.1228 24.8241 12.9318 24.9139 12.7207C25.0037 12.5096 25.05 12.2827 25.05 12.0536C25.05 11.8244 25.0037 11.5975 24.9139 11.3864C24.8241 11.1753 24.6926 10.9843 24.5271 10.8245C24.3629 10.6501 24.1631 10.5123 23.9412 10.4203C23.7193 10.3283 23.4802 10.2842 23.2398 10.2909H21.058V10.2917Z" fill="#5F6368"/>
<path d="M29.3732 12.0059C30.3348 12.0059 31.0939 12.2611 31.6504 12.7714C32.2069 13.2818 32.4849 13.9816 32.4844 14.8708V19.112H31.2399V18.157H31.1833C30.6446 18.9435 29.9281 19.3367 29.0338 19.3367C28.2704 19.3367 27.6318 19.112 27.1178 18.6626C26.8712 18.4563 26.674 18.198 26.5406 17.9065C26.4073 17.6149 26.3411 17.2975 26.3469 16.9773C26.3469 16.2653 26.6179 15.699 27.1599 15.2785C27.7018 14.8579 28.4253 14.6472 29.3304 14.6461C30.1029 14.6461 30.7392 14.7865 31.2391 15.0674V14.7721C31.2406 14.5538 31.1931 14.338 31.1002 14.1402C31.0072 13.9424 30.8711 13.7676 30.7017 13.6285C30.3577 13.3203 29.9093 13.1521 29.4459 13.1574C28.7192 13.1574 28.1441 13.4619 27.7207 14.0707L26.5748 13.3541C27.2051 12.4553 28.1379 12.0059 29.3732 12.0059ZM27.69 17.0054C27.6891 17.1699 27.7278 17.3321 27.8029 17.4787C27.8779 17.6253 27.9872 17.7519 28.1215 17.8481C28.4092 18.0728 28.7664 18.1919 29.1324 18.1851C29.6814 18.1842 30.2077 17.9672 30.5959 17.5816C31.0268 17.1788 31.2423 16.7061 31.2423 16.1636C30.8367 15.8426 30.271 15.6821 29.5453 15.6821C29.0168 15.6821 28.5762 15.8086 28.2233 16.0617C27.8669 16.3185 27.69 16.6307 27.69 17.0054Z" fill="#5F6368"/>
<path d="M39.6279 12.2314L35.2836 22.1463H33.9405L35.5527 18.6771L32.6961 12.2314H34.1102L36.1749 17.1748H36.2032L38.2113 12.2314H39.6279Z" fill="#5F6368"/>
<path d="M15.8005 14.1612C15.801 13.7674 15.7675 13.3744 15.7003 12.9863H10.2133V15.2117H13.356C13.2917 15.5671 13.1556 15.9059 12.9559 16.2077C12.7562 16.5094 12.497 16.7679 12.194 16.9675V18.412H14.0696C15.1678 17.4065 15.8005 15.9195 15.8005 14.1612Z" fill="#4285F4"/>
<path d="M10.2134 19.8079C11.7835 19.8079 13.1055 19.2959 14.0696 18.4131L12.194 16.9687C11.672 17.3201 10.9997 17.5208 10.2134 17.5208C8.69578 17.5208 7.40768 16.5048 6.94707 15.1357H5.01492V16.6244C5.49919 17.5813 6.24175 18.3858 7.15971 18.948C8.07768 19.5101 9.13491 19.8078 10.2134 19.8079Z" fill="#34A853"/>
<path d="M6.94701 15.1349C6.7035 14.4175 6.7035 13.6406 6.94701 12.9232V11.4346H5.01487C4.60749 12.2396 4.39532 13.1281 4.39532 14.0291C4.39532 14.93 4.60749 15.8185 5.01487 16.6235L6.94701 15.1349Z" fill="#FBBC04"/>
<path d="M10.2134 10.5385C11.0431 10.525 11.8449 10.8363 12.4453 11.4052L14.106 9.75604C13.0529 8.77384 11.6579 8.2346 10.2134 8.25136C9.13491 8.2514 8.07768 8.54913 7.15971 9.11128C6.24175 9.67344 5.49919 10.4779 5.01492 11.4349L6.94707 12.9235C7.40768 11.5544 8.69578 10.5385 10.2134 10.5385Z" fill="#EA4335"/>
</g>
<defs>
<clipPath id="clip0_11_10233">
<rect width="42.2791" height="28.186" fill="white" transform="translate(0.87207)"/>
</clipPath>
</defs>
</svg>
