<svg width="24" height="24" viewBox="0 0 24 24" fill="none" xmlns="http://www.w3.org/2000/svg">
<path fill-rule="evenodd" clip-rule="evenodd" d="M9.99927 2.25C9.30087 2.25 8.69802 2.65912 8.41731 3.25077C7.73377 3.25574 7.20103 3.28712 6.72548 3.47298C6.15729 3.69505 5.66308 4.07255 5.29936 4.5623C4.93243 5.05639 4.76019 5.68968 4.52311 6.56133L4.47672 6.73169L3.96399 9.69473C3.77846 9.82272 3.61732 9.97428 3.47718 10.1538C2.57635 11.3075 3.00532 13.0234 3.86327 16.4552C4.40894 18.6379 4.68178 19.7292 5.49556 20.3646C6.30935 21 7.43427 21 9.68413 21H14.3148C16.5647 21 17.6896 21 18.5034 20.3646C19.3172 19.7292 19.59 18.6379 20.1357 16.4552C20.9936 13.0234 21.4226 11.3075 20.5218 10.1538C20.3815 9.97414 20.2202 9.82247 20.0345 9.69442L19.5218 6.73169L19.4754 6.56133C19.2384 5.68968 19.0661 5.05639 18.6992 4.5623C18.3355 4.07255 17.8413 3.69505 17.2731 3.47298C16.7975 3.28712 16.2648 3.25574 15.5812 3.25077C15.3005 2.65912 14.6977 2.25 13.9993 2.25H9.99927ZM18.4173 9.14571L18.0559 7.05765C17.7722 6.01794 17.6692 5.69121 17.4949 5.45663C17.2991 5.19291 17.033 4.98964 16.727 4.87007C16.5072 4.78416 16.2417 4.75888 15.5798 4.75219C15.2985 5.34225 14.6965 5.75 13.9993 5.75H9.99927C9.30204 5.75 8.70004 5.34225 8.41872 4.75219C7.75689 4.75888 7.49131 4.78416 7.27151 4.87007C6.96556 4.98964 6.69945 5.19291 6.5036 5.45662C6.32939 5.6912 6.22639 6.01794 5.94261 7.05765L5.58128 9.14577C6.57943 9 7.90911 9 9.68413 9H14.3148C16.0896 9 17.4191 9 18.4173 9.14571ZM7.99951 12.25C8.41373 12.25 8.74951 12.5858 8.74951 13V17C8.74951 17.4142 8.41373 17.75 7.99951 17.75C7.5853 17.75 7.24951 17.4142 7.24951 17V13C7.24951 12.5858 7.5853 12.25 7.99951 12.25ZM16.7495 13C16.7495 12.5858 16.4137 12.25 15.9995 12.25C15.5853 12.25 15.2495 12.5858 15.2495 13V17C15.2495 17.4142 15.5853 17.75 15.9995 17.75C16.4137 17.75 16.7495 17.4142 16.7495 17V13ZM11.9995 12.25C12.4137 12.25 12.7495 12.5858 12.7495 13V17C12.7495 17.4142 12.4137 17.75 11.9995 17.75C11.5853 17.75 11.2495 17.4142 11.2495 17V13C11.2495 12.5858 11.5853 12.25 11.9995 12.25Z" fill="#FFF8EA"/>
</svg>
