<svg width="44" height="29" viewBox="0 0 44 29" fill="none" xmlns="http://www.w3.org/2000/svg">
<g clip-path="url(#clip0_11_10232)">
<path d="M0.848587 3.52326C0.848587 1.57742 2.426 0 4.37184 0H39.6044C41.5502 0 43.1277 1.57742 43.1277 3.52326V24.6628C43.1277 26.6086 41.5502 28.186 39.6044 28.186H4.37184C2.426 28.186 0.848587 26.6086 0.848587 24.6628V3.52326Z" fill="white"/>
<path d="M26.3993 5.74997L17.3013 5.78125L17.577 22.4373L26.6749 22.406L26.3993 5.74997Z" fill="#FF5F00"/>
<path d="M17.9001 14.1428C17.8438 10.7551 19.3614 7.74496 21.7384 5.79246C19.9442 4.38453 17.6949 3.53789 15.2565 3.54624C9.47992 3.56602 4.88523 8.32482 4.98265 14.187C5.08006 20.0492 9.83239 24.776 15.609 24.7562C18.0473 24.7479 20.2683 23.8859 22.0155 22.4659C19.5743 20.5593 17.9564 17.5305 17.9001 14.1428Z" fill="#EB001B"/>
<path d="M38.9936 13.9993C39.091 19.8615 34.4963 24.6203 28.7198 24.6401C26.2814 24.6484 24.032 23.8018 22.2378 22.3938C24.6439 20.4412 26.1324 17.4312 26.0761 14.0435C26.0198 10.6558 24.4024 7.65644 21.9608 5.72044C23.708 4.30038 25.9289 3.43843 28.3673 3.43008C34.1439 3.41029 38.8967 8.16653 38.9936 13.9993Z" fill="#F79E1B"/>
</g>
<defs>
<clipPath id="clip0_11_10232">
<rect width="42.2791" height="28.186" fill="white" transform="translate(0.848633)"/>
</clipPath>
</defs>
</svg>
